<svg xmlns="http://www.w3.org/2000/svg"><defs><font id="my-icon" horiz-adv-x="1030.273"><font-face font-family="my-icon" ascent="1000" descent="0"/><glyph glyph-name="arrow-right" unicode="" horiz-adv-x="1000" d="M328.624 186.235l11.05-11.05a15.625 15.625 0 0122.11 0l309.595 309.6a15.625 15.625 0 010 22.105l-309.6 309.595a15.625 15.625 0 01-22.105 0l-11.05-11.05a15.625 15.625 0 010-22.09l287.5-287.5-287.5-287.5a15.625 15.625 0 010-22.11z"/><glyph glyph-name="back" unicode="" horiz-adv-x="1000" d="M715.173 197.813a41.656 41.656 0 00-55.344-62.282l-375 333.344a41.656 41.656 0 000 62.281l375 333.344a41.656 41.656 0 1055.344-62.281L375.203 500.03l339.97-302.187z"/><glyph glyph-name="circel-hollow" unicode="" horiz-adv-x="1000" d="M500 875C275.625 875 93.75 693.125 93.75 468.75S275.625 62.5 500 62.5s406.25 181.875 406.25 406.25S724.375 875 500 875zm0-750c-190 0-343.75 153.75-343.75 343.75S310 812.5 500 812.5s343.75-153.75 343.75-343.75S690 125 500 125z"/><glyph glyph-name="close" unicode="" horiz-adv-x="1000" d="M573.877 500.098l316.992 317.285c20.41 20.508 20.41 53.515 0 74.023s-53.515 20.508-73.926 0L499.951 574.121 183.057 891.406c-20.41 20.508-53.516 20.508-73.926 0-20.41-20.508-20.41-53.515 0-74.023l316.894-317.188L109.131 182.91c-20.41-20.508-20.41-53.515 0-74.023 10.156-10.254 23.535-15.332 37.012-15.332 13.378 0 26.757 5.078 37.011 15.332l316.797 317.187 316.895-317.187c10.156-10.254 23.633-15.332 37.011-15.332s26.758 5.078 36.914 15.332c20.41 20.508 20.41 53.515 0 74.023L573.877 500.098z"/><glyph glyph-name="delete" unicode="" horiz-adv-x="1000" d="M511.578 968.617l-.367-.368H498.25C257.158 968.25 62.033 772.403 62.5 531v-1.5c0-241.03 195.797-436.25 437.25-436.25h1.44C742.496 93.716 937.967 289.763 937.5 531l.001 1.44c-.46 237.37-190.17 430.386-425.923 436.178zm-9.746.132c-.674.002-1.348.002-2.022.001h-.06c.664-.033 1.36-.034 2.082 0zm-2.08.001c241.23.45 437.28-194.93 437.747-436.201v-1.239c.466-241.131-195.023-437.093-436.417-437.56h-1.3C258.35 93.75 62.5 288.918 62.5 529.95v1.24c-.464 240.093 192.833 435.19 432.41 437.112 3.26.515 3.558.507 4.843.45zM312.25 562h375c19 0 31-12.5 31-31s-12.5-31-31-31h-375c-19 0-31 12.5-31 31s12 31 31 31z"/><glyph glyph-name="delete2" unicode="" horiz-adv-x="1000" d="M500 1000C223.36 1000 0 776.64 0 500S223.36 0 500 0s500 223.36 500 500-223.36 500-500 500m210.039-710.039c-13.32-13.32-36.713-13.32-50.033 0L500 449.968 339.993 289.96c-13.32-13.32-36.712-13.32-50.032 0-13.32 13.321-13.32 36.712 0 50.032L449.967 500 289.96 660.006c-13.32 13.321-13.32 36.713 0 50.033s36.713 13.32 50.033 0L500 550.032 660.006 710.04c13.32 13.32 36.713 13.32 50.033 0 13.32-13.321 13.32-36.712 0-50.032L550.032 500 710.04 339.994c16.73-13.321 16.73-36.55 0-50.033"/><glyph glyph-name="dialog-box" unicode="" horiz-adv-x="1000" d="M832.812 1000H167.187C75 1000 0 926.562 0 834.375V306.25c0-90.625 64.063-150 156.25-150h207.813L500 0l135.937 156.25H843.75c92.187 0 156.25 59.375 156.25 150v528.125C1000 926.563 925 1000 832.812 1000zM937.5 312.5c0-45.312-48.438-93.75-93.75-93.75h-250L500 93.75l-93.75 125h-250c-45.313 0-93.75 48.438-93.75 93.75v531.25c0 45.313 48.438 93.75 93.75 93.75h687.5c45.312 0 93.75-48.438 93.75-93.75V312.5z"/><glyph glyph-name="diamond" unicode="" horiz-adv-x="1000" d="M0 937.5h1000v-875H0v875zm500-875c-12.173 0-23.757 4.53-31.793 12.435L10.53 525.21c-11.548 11.366-13.82 27.702-5.714 41.11l174.82 289.042c7.3 12.07 21.752 19.637 37.508 19.637h565.72c15.755 0 30.206-7.567 37.508-19.637L995.185 566.32c8.106-13.405 5.832-29.742-5.722-41.102L531.787 74.947C523.76 67.033 512.175 62.5 500 62.5zM93.291 554.654l406.71-400.13 406.715 400.13-149.48 247.16H242.772l-149.48-247.16zM499.83 312.5c-12.04 0-23.517 4.146-31.587 11.413L198.121 567.208c-15.4 14.22-13.876 35.865 3.42 48.561 17.294 12.697 43.93 11.724 59.754-2.183L499.83 398.739l238.535 214.847c15.749 14.184 42.657 15.301 60.1 2.494 17.443-12.807 18.816-34.687 3.067-48.872l-270.114-243.29c-8.067-7.27-19.546-11.418-31.588-11.418z"/><glyph glyph-name="endlive" unicode="" horiz-adv-x="1000" d="M881.957 667.762l-121.54-62.291v141.324c0 3.073-1.402 6.199-4.184 8.766-3.28 3.029-8.058 4.856-13.178 4.856H111.111c-10.122 0-17.361-6.682-17.361-13.622V253.207c0-3.075 1.402-6.2 4.184-8.768 3.281-3.029 8.059-4.856 13.178-4.856h631.943c5.12 0 9.897 1.827 13.178 4.856 2.782 2.567 4.184 5.693 4.184 8.766V394.53l45.503-23.32 75.09-38.61c5.94-2.435 12.98-1.92 18.294 1.27 4.543 2.726 6.946 6.814 6.946 10.831v310.602c0 4.016-2.403 8.105-6.946 10.831-5.035 3.021-11.617 3.643-17.347 1.629zm-305.723-183.81c6.99 3.382 11.266 9.474 11.266 16.048 0 6.574-4.277 12.667-11.266 16.049l-186.936 97.956c-7.17 3.465-16.096 3.553-23.368.229-7.272-3.324-11.763-9.545-11.763-16.287V402.053c0-6.741 4.491-12.963 11.763-16.287s16.199-3.236 23.368.23l186.936 97.956z"/><glyph glyph-name="face" unicode="" horiz-adv-x="1001.953" d="M496.392 188.804c-182.752 0-258.739 164.279-261.908 171.29l61.49 27.643c2.428-5.361 60.75-131.51 200.385-131.51 149.48 1.752 206.35 126.184 208.677 131.477l61.624-27.34c-3.067-6.91-77.201-169.3-266.728-171.526l-3.54-.033zm4.585-156.793c-250.952 0-455.112 204.16-455.112 455.111s204.16 455.111 455.112 455.111 455.11-204.16 455.11-455.11S751.928 32.01 500.978 32.01zm0 842.798c-213.767 0-387.687-173.92-387.687-387.687S287.21 99.436 500.977 99.436s387.686 173.92 387.686 387.686S714.777 874.81 500.977 874.81zM316.336 566.143c0-28.994 23.498-52.557 52.557-52.557s52.556 23.531 52.556 52.557-23.498 52.556-52.556 52.556-52.557-23.531-52.557-52.556zm263.356 0c0-28.994 23.498-52.557 52.557-52.557s52.557 23.531 52.557 52.557-23.498 52.556-52.557 52.556-52.557-23.531-52.557-52.556z"/><glyph glyph-name="heart-hollow" unicode="" horiz-adv-x="1000" d="M500.01 130.757a22.75 22.75 0 00-14.774 5.438l-325.46 277.1c-.463.395-.91.807-1.34 1.237l-22.955 22.951c-47.778 47.77-74.09 111.283-74.09 178.842 0 67.558 26.313 131.071 74.09 178.839 47.763 47.77 111.276 74.08 178.835 74.08s131.074-26.31 178.845-74.081l6.845-6.842 6.837 6.839c47.768 47.774 111.282 74.085 178.847 74.085 67.562 0 131.08-26.31 178.852-74.081 47.763-47.769 74.066-111.28 74.066-178.836s-26.303-131.069-74.065-178.84l-22.976-22.96a23.151 23.151 0 00-1.334-1.23L514.784 136.196a22.741 22.741 0 00-14.774-5.439zM190.02 447.41l309.99-263.93 309.98 263.93 22.326 22.312c80.821 80.836 80.821 212.374-.007 293.21-39.161 39.162-91.233 60.73-146.621 60.73-55.388 0-107.456-21.567-146.612-60.73l-22.95-22.957a22.79 22.79 0 00-32.23-.005l-22.964 22.96c-39.164 39.165-91.233 60.734-146.618 60.734-55.383 0-107.448-21.568-146.604-60.73-39.17-39.162-60.739-91.227-60.739-146.609 0-55.381 21.57-107.448 60.737-146.607l22.312-22.308z"/><glyph glyph-name="heart" unicode="" horiz-adv-x="1000" d="M867.08 818.87c-94.69 102.22-248.224 102.22-342.89 0l-24.18-26.12-24.194 26.12c-94.69 102.22-248.21 102.22-342.885 0-94.7-102.22-94.7-267.955 0-370.185l24.185-26.095L500.01 107.4l342.875 315.19 24.195 26.095c94.685 102.235 94.685 267.965 0 370.185z"/><glyph glyph-name="historyIcon" unicode="" horiz-adv-x="1000" d="M500 938.486c-242.016 0-438.89-196.875-438.89-438.89 0-242.033 196.867-438.89 438.89-438.89 242.033 0 438.89 196.857 438.89 438.89 0 242.015-196.857 438.89-438.89 438.89zm0-814.922c-207.308 0-376.022 168.724-376.022 376.032S292.525 875.618 500 875.618c207.483 0 376.022-168.548 376.022-376.022 0-207.484-168.714-376.023-376.022-376.023zm.167 376.032v219.279c0 17.358-13.983 31.518-31.35 31.518-17.359 0-31.342-14.16-31.342-31.518V468.017c0-17.28 14.008-31.29 31.289-31.29h188.155c17.36 0 31.519 13.993 31.519 31.351-.176 17.526-14.327 31.518-31.518 31.518H500.167z"/><glyph glyph-name="live-text" unicode="" horiz-adv-x="1000" d="M875 333.333c23.012 0 41.667-18.654 41.667-41.666C916.667 268.655 898.012 250 875 250H125c-23.012 0-41.667 18.655-41.667 41.667s18.655 41.666 41.667 41.666h750zM100.139 746.525c10.388 4.748 23.14 4.623 33.383-.328l267.05-139.937c9.985-4.832 16.095-13.535 16.095-22.926 0-9.392-6.11-18.095-16.095-22.926l-267.05-139.939c-10.243-4.95-22.995-5.075-33.384-.327-10.389 4.749-16.805 13.637-16.805 23.268v279.848c0 9.63 6.417 18.518 16.806 23.267zM875 541.667c23.012 0 41.667-18.655 41.667-41.667S898.012 458.333 875 458.333H541.667C518.655 458.333 500 476.988 500 500s18.655 41.667 41.667 41.667H875zM875 750c23.012 0 41.667-18.655 41.667-41.667S898.012 666.667 875 666.667H541.667c-23.012 0-41.667 18.654-41.667 41.666C500 731.345 518.655 750 541.667 750H875z"/><glyph glyph-name="live-video" unicode="" horiz-adv-x="1000" d="M743.055 791.667c12.893 0 25.258-4.728 34.374-13.143 9.117-8.415 14.238-19.829 14.238-31.73v-90.192l77.486 39.713c15.037 6.167 32.434 4.893 46.23-3.386 13.797-8.279 22.117-22.438 22.117-37.627V344.7c0-15.19-8.32-29.349-22.116-37.627-13.797-8.279-31.194-9.553-46.231-3.386l-77.486 39.711v-90.193c0-11.9-5.121-23.314-14.238-31.73-9.117-8.414-21.481-13.142-34.374-13.142H111.112c-12.893 0-25.258 4.728-34.374 13.143-9.117 8.416-14.238 19.83-14.238 31.73v493.589c0 24.782 21.764 44.872 48.611 44.872h631.944zm-13.888-62.5H125V270.833h604.167v157.834l156.953-75.844v292.912l-156.953-75.11v158.542zM365.93 614.234c7.272 3.324 16.199 3.236 23.368-.23l186.936-97.955c6.99-3.382 11.266-9.475 11.266-16.049s-4.277-12.666-11.266-16.048l-186.936-97.957c-7.17-3.465-16.096-3.553-23.368-.229-7.272 3.324-11.763 9.546-11.763 16.287v195.894c0 6.742 4.491 12.963 11.763 16.287z"/><glyph glyph-name="live" unicode="" horiz-adv-x="1000" d="M881.957 667.762l-121.54-62.291v141.324c0 3.073-1.402 6.199-4.184 8.766-3.28 3.029-8.058 4.856-13.178 4.856H111.111c-10.122 0-17.361-6.682-17.361-13.622V253.207c0-3.075 1.402-6.2 4.184-8.768 3.281-3.029 8.059-4.856 13.178-4.856h631.943c5.12 0 9.897 1.827 13.178 4.856 2.782 2.567 4.184 5.693 4.184 8.766V394.53l45.503-23.32 75.09-38.61c5.94-2.435 12.98-1.92 18.294 1.27 4.543 2.726 6.946 6.814 6.946 10.831v310.602c0 4.016-2.403 8.105-6.946 10.831-5.035 3.021-11.617 3.643-17.347 1.629zM561.975 500l-181.742 95.248c-1.451.7-3.621.777-5.233.203V402.053c0 1.672-.492 2.547-.454 2.657 1.696-.744 4.112-.719 5.083-.262L561.975 500z"/><glyph glyph-name="more" unicode="" horiz-adv-x="1000" d="M386.364 447.923c0-62.76 50.876-113.637 113.636-113.637s113.636 50.877 113.636 113.637c0 40.598-21.659 78.112-56.818 98.412-35.159 20.299-78.477 20.299-113.636 0-35.16-20.3-56.818-57.814-56.818-98.412zm338.522 0c0-62.76 50.877-113.637 113.637-113.637s113.636 50.877 113.636 113.637-50.877 113.636-113.636 113.636c-62.76 0-113.637-50.877-113.637-113.636zm-677.045 0c0-62.76 50.877-113.637 113.636-113.637 62.76 0 113.637 50.877 113.637 113.637s-50.877 113.636-113.637 113.636S47.841 510.682 47.841 447.923z"/><glyph glyph-name="navbar-combination" unicode="" horiz-adv-x="1000" d="M765 752.5v-530H235v530h530m47.5 47.5h-625V175h625v625zm-650 25h100V725h-100v100zm0-575h100V150h-100v100zm575 0h100V150h-100v100zm0 575h100V725h-100v100zm-425-150h375V525h-375v150zm150 0V300h-150v375h150zm75-225h150V300h-150v150z"/><glyph glyph-name="navbar-course" unicode="" horiz-adv-x="1000" d="M731.214 825H672.25V551.536l-66.393 46.427-65.928-46.426V825H268.786c-38.87-.253-70.32-31.7-70.573-70.571V243.713c1.248-38.143 32.41-68.485 70.574-68.713h464.285c38.248 1.007 68.728 32.31 68.715 70.571v510.716c-1.248 38.143-32.41 68.485-70.574 68.713h.001zM306.857 297.107c1.082-14.296-9.417-26.853-23.678-28.321-14.262 1.468-24.76 14.025-23.679 28.321v405.786a26.464 26.464 0 0023.679 29.25c14.261-1.468 24.76-14.026 23.678-28.322V297.107z"/><glyph glyph-name="navbar-more" unicode="" horiz-adv-x="1000" d="M500 850c-192.5 0-350-157.5-350-350s157.5-350 350-350 350 157.5 350 350-157.5 350-350 350zM325 425c-27.5 0-50 22.5-50 50s22.5 50 50 50 50-22.5 50-50-22.5-50-50-50zm175 0c-27.5 0-50 22.5-50 50s22.5 50 50 50 50-22.5 50-50-22.5-50-50-50zm175 0c-27.5 0-50 22.5-50 50s22.5 50 50 50 50-22.5 50-50-22.5-50-50-50z"/><glyph glyph-name="navbar-person" unicode="" horiz-adv-x="1000" d="M500 850c-192.5 0-350-157.5-350-350s157.5-350 350-350 350 157.5 350 350-157.5 350-350 350zM325 315c5 85 115 72.5 130 117.5 2.5 15 0 25 0 40-7.5 2.5-20 27.5-22.5 47.5-5 0-12.5 5-15 27.5-2.5 12.5 5 17.5 7.5 20-17.5 70-7.5 132.5 72.5 135 20 0 35-5 42.5-17.5 60-7.5 42.5-90 32.5-117.5 2.5-2.5 7.5-7.5 7.5-20-2.5-20-10-27.5-15-27.5-2.5-20-15-42.5-20-47.5v-40c15-45 125-32.5 130-117.5 5-87.5-355-87.5-350 0z"/><glyph glyph-name="navbar-silkbag" unicode="" horiz-adv-x="1000" d="M337.407 726.263S408.108 675 498.993 675c90.885 0 163.599 51.263 163.599 51.263s78.78 61.869 38.384 88.378c-40.397 26.522-100.992-8.832-100.992-8.832S553.521 850 498.993 850c-54.542 0-98.964-44.191-98.964-44.191s-60.609 35.353-101.004 8.83c-40.397-26.507 38.382-88.376 38.382-88.376zM359.362 675s59.716-43.478 140.63-43.478c80.916 0 142.566 43.478 142.566 43.478l.312-.015c5.578-.318 84.724-7.206 144.172-143.463 55.486-129.383 34.629-210.692 32.872-216.99l-.114-.394S950.806 125 499.994 125C49.196 125 180.2 311.956 180.2 311.956s-23.12 86.956 32.744 217.391C270.268 664.78 347.58 674.283 358.147 674.95l.526.029.689.021zM540.15 529.305l-8.4-35.805a910.973 910.973 0 01-16.912-.493l-9.17-.385-19.768-1.047 1.4-10.395c2.066-19.416 3.3-48.39 3.703-86.923l.079-9.062.068-20.67c9.067.587 19.162 1.09 30.286 1.509l8.535.298 18.229.503v-13.09c-16.46-.276-30.009-.553-40.65-.83l-4.382-.118-16.568-.592c1.4 6.93 2.217 12.705 2.45 17.325-8.283.513-15.896.93-22.838 1.251l-6.718.289-12.094.385v18.48c4.667-.513 8.75-1.027 12.25-1.54l3.306-.513 5.444-1.027c5.133 10.523 8.517 24.897 10.15 43.12-14.187 1.232-27.477 1.971-39.872 2.218l-9.128.092-4.004-.015c-3.808-.031-7.028-.108-9.66-.231l-2.436-.139 4.2 11.165c1.307.103 2.893.185 4.76.246l3.01.077 7.28.062c13.533 0 27.067-1.155 40.6-3.465 4.667 8.983 8.283 23.485 10.85 43.505-21 1.54-38.5 2.182-52.5 1.925a589.565 589.565 0 015.25 19.25c-13.067 7.443-27.533 12.063-43.4 13.86-4.433-18.48-11.783-39.077-22.05-61.792-10.267-22.716-21-39.335-32.2-49.858 11.842-10.555 26.095-18.458 42.76-23.708l7.29-2.087 3.85 6.545c.653.205 1.55.41 2.688.616l1.89.308 4.872.616v-17.71c-20.533-.513-35.35-1.155-44.45-1.925 1.167-17.197 4.55-31.698 10.15-43.505 7.653 1.232 16.501 2.218 26.544 2.957l7.756.508v-11.935c0-7.443-1.75-13.86-5.25-19.25-3.5-5.39-8.283-8.983-14.35-10.78.467-8.727 3.033-18.865 7.7-30.415s9.567-19.378 14.7-23.485c12.367 5.903 25.083 12.962 38.15 21.175 10.453 6.57 19.861 13.06 28.224 19.466l6.076 4.789v32.725c-3.1-1.1-6.736-2.294-10.907-3.583l-4.35-1.32-15.193-4.337v26.565c8-.587 14.82-1.173 20.457-1.76l4.007-.44 6.686-.88c1.089 1.882 2.074 3.993 2.956 6.331l1.244 3.679V244.79c8.867 1.54 17.558 4.042 26.075 7.508 6.813 2.772 12.693 6.077 17.64 9.917l3.535 2.98v50.82h18.2v-20.79c0-26.437-2.567-48.638-7.7-66.605 10.033-.513 20.3.45 30.8 2.888 10.5 2.438 19.483 6.224 26.95 11.357-1.452 14.145-2.258 32.549-2.42 55.212l-.03 8.698v9.24h16.8v-4.62c0-24.127-1.867-46.328-5.6-66.605 10.033-.513 19.833.45 29.4 2.888 9.567 2.438 18.2 6.352 25.9 11.742-1.452 14.145-2.258 32.448-2.42 54.908l-.03 8.617v28.875c-4.2.33-10.521.636-18.964.92l-4.398.139-40.688.866v13.09c12.933-.293 24.8-.67 35.6-1.131l7.9-.362 14.6-.817c0 43.17.831 76.782 2.493 100.836l.399 5.381.958 10.438 1.4 10.395c-11.733.587-24.648 1.09-38.743 1.509l-10.793.298-22.914.503 12.25 15.015-58.8 20.405zm55.683-112.462c6.826-.057 12.381-.153 16.667-.286v-8.4l-12.806.236-24.694.114c-16.945 0-29.444-.117-37.5-.35v8.05l7.552.306c4.219.132 9.102.23 14.648.296l36.133.034zM537.5 441.7h75c0-3.733-.136-6.533-.408-8.4-6.114.175-14.597.284-25.45.328L575 433.65l-24.29-.114-12.802-.236c-.204 1.4-.332 3.325-.383 5.775l-.025 2.625h75z"/><glyph glyph-name="navbar-stockpool" unicode="" horiz-adv-x="1000" d="M687.5 825c100 0 150-50 150-150V300c0-100-50-150-150-150h-375c-100 0-150 50-150 150v375c0 100 50 150 150 150h375zm-175-275h-25v-75h-50V300h50v-75h25v75h50v175h-50v75zm175 100h-25v-74.975l-50-.025V400l50 .025V325h25v75.025l50-.025v175l-50 .025V650zm-350 75h-25l-.025-75H262.5V475h49.975l.025-75h25l-.025 75H387.5v175h-50.025l.025 75z"/><glyph glyph-name="nothumbs" unicode="" horiz-adv-x="1000" d="M691.787 908.833c-75.453 0-145.61-37.85-191.786-100.267-46.15 62.431-116.292 100.267-191.786 100.267-136.017 0-246.676-120.984-246.676-269.708 0-88.724 39.634-150.965 71.493-200.974C225.626 292.895 458.44 112.127 468.3 104.506c9.499-7.344 20.605-11.018 31.686-11.018 11.107 0 22.198 3.673 31.687 11.018 9.873 7.621 242.7 188.389 335.266 333.645 31.875 50.01 71.522 112.25 71.522 200.974-.001 148.723-110.66 269.708-246.676 269.708zM821.9 472.479c-88.138-138.31-321.914-318.96-321.914-318.96S266.237 334.17 178.071 472.48c-32.515 51.061-61.63 99.592-61.63 166.647 0 115.789 85.851 209.692 191.773 209.692 78.276 0 145.475-51.355 175.287-124.878v.367h.08c2.22-7.667 8.696-13.257 16.404-13.257 7.736 0 14.211 5.589 16.418 13.257h.227c29.88 73.302 96.985 124.51 175.155 124.51 105.897 0 191.774-93.903 191.774-209.692 0-67.054-29.118-115.585-61.66-166.647z"/><glyph glyph-name="nowlive" unicode="" horiz-adv-x="1000" d="M881.957 667.762l-121.54-62.291v141.324c0 3.073-1.402 6.199-4.184 8.766-3.28 3.029-8.058 4.856-13.178 4.856H111.111c-10.122 0-17.361-6.682-17.361-13.622V253.207c0-3.075 1.402-6.2 4.184-8.768 3.281-3.029 8.059-4.856 13.178-4.856h631.943c5.12 0 9.897 1.827 13.178 4.856 2.782 2.567 4.184 5.693 4.184 8.766V394.53l45.503-23.32 75.09-38.61c5.94-2.435 12.98-1.92 18.294 1.27 4.543 2.726 6.946 6.814 6.946 10.831v310.602c0 4.016-2.403 8.105-6.946 10.831-5.035 3.021-11.617 3.643-17.347 1.629zm-305.723-183.81c6.99 3.382 11.266 9.474 11.266 16.048 0 6.574-4.277 12.667-11.266 16.049l-186.936 97.956c-7.17 3.465-16.096 3.553-23.368.229-7.272-3.324-11.763-9.545-11.763-16.287V402.053c0-6.741 4.491-12.963 11.763-16.287s16.199-3.236 23.368.23l186.936 97.956z"/><glyph glyph-name="onePerson" unicode="" horiz-adv-x="1000" d="M106.68 161.875c-26.534-9.508-43.668-31.55-43.668-51.675V86.792c0-14.725 11.317-24.292 35.225-24.292h803.509c23.917 0 35.242 9.567 35.242 24.292V110.2c0 20.625-17.617 43.675-41.5 52.225l-222.192 86.358c-2.767 1.075-7.084 2.834-12.484 5.184a384.4 384.4 0 00-26.633 12.75c-15.3 8.116-28.025 16.366-38.542 26.166-.975.917-.975.917-1.966 1.884-32.575 31.933-32.417 75.291-16.559 128.225 4.542 15.175 11.017 26.083 29.267 53.7a3732.333 3732.333 0 008.925 13.458c3.725 5.625 6.6 9.983 9.458 14.358a1038.333 1038.333 0 0119.642 31.134c26.592 44.033 43.583 82.066 49.908 115.433 1.75 9.208 2.617 17.842 2.617 25.883 0 145.05-91.892 258.092-198.108 258.092-106.209 0-198.092-113.042-198.092-258.1 0-11.983 1.833-25.5 5.517-40.333 7.683-31.017 22.775-65.759 43.766-103.225 15.1-26.95 54.925-88.275 56.85-91.95 22.759-43.484 20.684-108.292-9.2-141.692-13.708-15.15-30.908-25.142-54.133-35.25-9.5-4.125-19.367-7.917-29.208-11.358a503.899 503.899 0 00-9.725-3.284l-197.9-87.983zm809.89 59.392c46.492-16.65 82.917-61.717 82.917-111.067V86.792C999.487 32.95 955.646 0 901.746 0H98.237C44.346 0 .512 32.95.512 86.792V110.2c0 49.333 36.417 93.067 82.909 109.725l198.958 88.458s53.933 16.534 68.7 33.042c9.825 10.983 12.858 47.242.4 71.033C339.046 436.25 238.221 567.15 238.221 676.95c0 177.05 116.666 320.6 260.583 320.6 143.942 0 260.625-143.55 260.625-320.592 0-114.641-113.15-240.841-122.45-271.891-9.3-31.05-10.058-55.367.45-65.667 16.35-16.033 58.442-32.333 58.442-32.333l220.708-85.8z"/><glyph glyph-name="person" unicode="" horiz-adv-x="1030.273" d="M77.132.278h875.993c34.572 0 62.571 27.965 62.571 62.484v93.804c0 36.725-62.571 62.484-62.571 62.484l-272.423 129c86.723 68.16 116.07 202.046 116.07 277.077v156.206C796.772 884.8 653.347 1000 515.133 1000c-138.223 0-281.828-115.2-281.828-218.668V625.126c0-68.254 31.19-206.35 118.737-276.528L77.132 219.05s-62.555-27.84-62.555-62.484V62.762c0-34.52 28.016-62.484 62.555-62.484zm.049 125.914c0 24.85 18.674 32.646 26.132 36.084l274.894 129.548a62.455 62.455 0 0135.964 49.143c2.663 21.492-6.022 42.827-22.94 56.38-65.032 52.138-95.321 166.744-95.321 227.779v156.206c0 65.311 113.864 156.152 219.229 156.152 106.299 0 219.03-89.409 219.03-156.152V625.126c0-60.12-25.037-175.155-92.19-227.963-17.12-13.463-26.013-34.862-23.45-56.47 2.57-21.644 16.237-40.353 36.04-49.452l272.418-128.998c2.128-.958 26.106-4.99 26.106-38.431l.032-61.018-875.944-.032v63.43z"/><glyph glyph-name="persons" unicode="" horiz-adv-x="1000" d="M505.26 453.645c70.965 38.35 119.287 113.437 119.287 199.604 0 125.015-101.706 226.72-226.718 226.72-125.015 0-226.721-101.705-226.721-226.72 0-86.167 48.322-161.256 119.287-199.604-130.918-44.78-225.309-169.04-225.309-314.938 0-16.179 13.117-29.295 29.295-29.295s29.297 13.115 29.297 29.295c0 151.166 122.983 274.15 274.15 274.15 151.167 0 274.15-122.984 274.15-274.15 0-16.179 13.115-29.295 29.294-29.295s29.297 13.115 29.297 29.295c0 145.898-94.392 270.156-225.31 314.938zM229.7 653.249c0 92.706 75.422 168.129 168.129 168.129s168.129-75.422 168.129-168.129-75.422-168.129-168.13-168.129c-92.706.001-168.128 75.423-168.128 168.129zm538.953-180.8c37.38 30.519 61.293 76.942 61.293 128.848 0 91.693-74.597 166.29-166.29 166.29-16.178 0-29.294-13.115-29.294-29.296 0-16.179 13.115-29.295 29.295-29.295 59.385 0 107.698-48.313 107.698-107.7 0-59.384-48.313-107.696-107.698-107.696-16.179 0-29.295-13.117-29.295-29.297 0-16.179 13.115-29.295 29.295-29.295 117.264 0 212.666-95.4 212.666-212.666 0-16.179 13.115-29.296 29.297-29.296 16.177 0 29.294 13.116 29.294 29.297 0 112.365-68.678 208.987-166.261 250.107z"/><glyph glyph-name="picture" unicode="" horiz-adv-x="1000" d="M0 916.656V83.313h1000v833.343H0zm916.656-83.312V391.687l-125 125L625 350.031 333.344 641.687l-250-250v441.657h833.343zM83.344 166.656V275l250 250L625 233.344 791.656 400l125-125V166.656H83.313zm750 500a83.344 83.344 0 10-166.688 0 83.344 83.344 0 00166.688 0z"/><glyph glyph-name="question-answer-comment" unicode="" horiz-adv-x="1000" d="M274.905 215.358c11.906 0 22.295 4.358 36.948 17.747l58.42 52.421c-11.873 11.337-25.262 34.453-25.262 64.548v211.042c0 84.568 51.536 138.063 133.073 138.063h187.8v.979C658.684 741.842 629.947 775 565.78 775H223.147c-66.947 0-102.094-36.758-102.094-101.274V410.232c0-61.453 32.21-93.6 93.663-93.6h31.452v-68.874c0-20.053 11.148-32.4 28.737-32.4zm501.98 438.316c66.883 0 102.062-36.758 102.062-101.306V369.59c0-61.42-32.21-93.315-93.663-93.315h-22.042v-69.158c0-20.021-11.147-32.116-28.737-32.116-11.905 0-22.294 4.358-36.947 17.747l-93.126 83.527H490.716c-67.137 0-101.842 29.305-101.842 93.315v178.422c0 69.915 34.42 105.663 101.842 105.663h286.168zM631.62 394.632c-15.695 0-27.663-11.527-27.663-27.474 0-15.947 11.968-27.474 27.695-27.474a26.968 26.968 0 0127.663 27.474 26.968 26.968 0 01-27.663 27.474h-.032zm7.137 197.81c-25.137 0-44.59-6.347-59.242-18.884a79.453 79.453 0 01-24.032-37.2 26.968 26.968 0 01-1.358-8.21c0-11.527 7.895-18.948 18.38-21.79l3.915-.663 2.684-.253h1.169a22.105 22.105 0 0120.431 13.105l3.158 8.053c5.81 13.453 16.421 20.337 33.537 20.337 20.274 0 30.726-8.59 30.726-22.705 0-9.316-3.347-13.8-21.663-26.969l-8.21-5.779c-9.632-6.979-13.453-10.642-18.948-17.905-8.431-10.863-11.905-21.884-12.379-39.063v-3.474c.66-12.556 11.112-22.353 23.685-22.202 12.947 0 23.052 8.528 23.052 22.17v2.211c.41 11.305 3.537 15.474 20.716 27.947l10.832 7.927c22.073 17.052 31.326 32.494 31.326 56.273 0 40.927-31.358 67.074-77.78 67.074z"/><glyph glyph-name="question-answer-like" unicode="" horiz-adv-x="1000" d="M274.905 215.358c11.906 0 22.295 4.358 36.948 17.747l58.42 52.421c-11.873 11.337-25.262 34.453-25.262 64.548v211.042c0 84.568 51.536 138.063 133.073 138.063h187.8v.979C658.684 741.842 629.947 775 565.78 775H223.147c-66.947 0-102.094-36.758-102.094-101.274V410.232c0-61.453 32.21-93.6 93.663-93.6h31.452v-68.874c0-20.053 11.148-32.4 28.737-32.4zm501.98 438.316c66.883 0 102.062-36.758 102.062-101.306V369.59c0-61.42-32.21-93.315-93.663-93.315h-22.042v-69.158c0-20.021-11.147-32.116-28.737-32.116-11.905 0-22.294 4.358-36.947 17.747l-93.126 83.527H490.716c-67.137 0-101.842 29.305-101.842 93.315v178.422c0 69.915 34.42 105.663 101.842 105.663h286.168zM730.99 510.67h-59.94c23.226 85.743-16.003 90.122-16.003 90.122-16.627 0-13.18-13.142-14.438-15.332 0-41.933-44.557-74.79-44.557-74.79V391.757c0-11.737 16.003-15.965 22.28-15.965h90.06c8.476 0 15.379 22.219 15.379 22.219 22.28 75.73 22.28 98.263 22.28 98.263 0 15.646-15.061 14.396-15.061 14.396zm-168.62-9.878h-34.156c-7.054 0-7.162-6.746-7.162-6.746l7.054-111.178c0-7.076 7.28-7.076 7.28-7.076h29.561c6.16 0 6.105 4.681 6.105 4.681v111.888c0 8.54-8.682 8.431-8.682 8.431z"/><glyph glyph-name="question-comment" unicode="" horiz-adv-x="1000" d="M521.065 12.76c-4.297 0-8.334.13-12.11.26-3.255.131-6.25.261-8.984.261-62.24 0-122.786 12.24-179.687 36.328-54.948 23.308-104.297 56.51-146.745 98.959-42.318 42.317-75.651 91.797-98.959 146.744C50.492 352.214 38.252 412.63 38.252 475c0 62.24 12.24 122.786 36.328 179.688 23.308 54.947 56.51 104.296 98.959 146.744 42.317 42.318 91.797 75.651 146.745 98.959 56.9 24.088 117.317 36.328 179.687 36.328 62.24 0 122.787-12.24 179.688-36.328 54.947-23.308 104.296-56.51 146.744-98.959 42.318-42.317 75.651-91.797 98.959-146.745C949.45 597.788 961.69 537.37 961.69 475v-4.688c0-3.385.13-7.291 0-11.328V13.542H534.737l-4.948-.26c-2.865-.391-5.86-.522-8.724-.522zm-22.526 78.776h384.896v369.271c.13 2.474 0 5.339 0 8.334v5.599c0 211.458-172.006 383.463-383.464 383.463-211.458.13-383.463-171.875-383.463-383.203 0-211.068 171.223-382.682 382.03-383.464zm-285.026 362.63a60.417 60.417 0 11120.833 0c0 33.368-27.05 60.417-60.417 60.417-33.367 0-60.416-27.05-60.416-60.416zm231.64 0c0-33.367 27.05-60.416 60.417-60.416 33.367 0 60.417 27.05 60.417 60.417 0 33.367-27.05 60.416-60.417 60.416-33.367 0-60.417-27.05-60.417-60.416zm233.594 0c0-33.367 27.05-60.416 60.417-60.416 33.367 0 60.416 27.05 60.416 60.417 0 33.367-27.049 60.416-60.416 60.416s-60.417-27.05-60.417-60.416z"/><glyph glyph-name="question-featured" unicode="" horiz-adv-x="1000" d="M898.852 460.412c20.081 19.592 27.265 43.837 19.837 66.53-7.347 22.531-27.51 37.878-55.02 41.878l-192.083 28.163a50.122 50.122 0 00-28.653 20.98l-85.959 175.51c-12.245 25.225-33.061 39.592-56.98 39.592-23.918 0-44.652-14.367-56.979-39.592l-85.96-175.51a49.47 49.47 0 00-28.57-20.98L136.32 568.82c-27.592-4.081-47.673-19.347-55.02-41.959-7.429-22.694-.163-46.939 19.755-66.449l139.02-136.571a51.265 51.265 0 0011.02-34.368L218.28 96.657c-3.755-21.96.817-41.878 13.062-56.327a56.757 56.757 0 0144.081-20.087c11.51 0 23.347 3.108 35.102 9.393l172 91.02c6.123 3.266 28.98 3.266 35.102 0l171.919-91.02c29.387-15.591 60.98-10.775 79.183 10.694 12.164 14.45 16.735 34.368 13.062 56.327l-32.817 192.735a51.102 51.102 0 0011.02 34.449l138.858 136.571zM223.913 678.616c23.502 0 42.567 19.028 42.612 42.53v224.572c-.998 22.787-19.762 40.748-42.571 40.748-22.81 0-41.574-17.96-42.572-40.748v-224.49c0-23.592 19.02-42.612 42.531-42.612m170.449 127.755c23.502.045 42.53 19.11 42.53 42.612v96.735c-.997 22.787-19.762 40.748-42.57 40.748-22.81 0-41.574-17.96-42.572-40.748v-96.735c0-23.51 19.02-42.612 42.612-42.612m212.98 0c23.502.045 42.53 19.11 42.53 42.612v96.735c-.998 22.787-19.762 40.748-42.571 40.748-22.81 0-41.574-17.96-42.572-40.748v-96.735c0-23.51 19.02-42.612 42.613-42.612m170.367-116.245c23.534 0 42.612 19.078 42.612 42.613v224.49c0 23.533-19.078 42.612-42.612 42.612-23.534 0-42.612-19.079-42.612-42.613v-224.49c0-23.51 19.102-42.612 42.612-42.612"/><glyph glyph-name="question-investment-adviser" unicode="" horiz-adv-x="1000" d="M499.302 427.507c92.047.698 153.459 122.753 153.459 188.91 0 66.156 0 183.466-153.459 183.466-153.458 0-153.458-117.31-153.458-183.466.07-66.157 61.41-188.91 153.458-188.91zm258.486-92.745c-32.101 25.332-114.867 64.203-142.781 76.904-5.234 2.372-11.445.349-14.237-4.746l-68.738-126.033-9.212 27.007a12.702 12.702 0 00.628 9.84l15.353 31.753c1.256 2.652.767 5.722-1.256 7.816l-31.892 32.45a6.95 6.95 0 01-9.84 0l-31.892-32.45c-2.024-2.094-2.582-5.234-1.256-7.816l15.213-31.404a12.736 12.736 0 00.349-10.468L467.34 280.19l-66.785 126.52c-2.721 5.165-9.002 7.328-14.306 4.886-27.914-12.84-110.051-51.572-142.641-76.834-13.469-10.468-24.007-28.193-32.45-46.826-5.584-12.352-8.515-25.82-8.515-39.36v-27.285c0-25.612 20.797-46.408 46.408-46.408h501.898c25.611 0 46.408 20.796 46.408 46.408v34.613c0 16.749-4.118 33.358-12.771 47.664-7.328 12.003-16.19 23.029-26.798 31.194z"/><glyph glyph-name="question-like" unicode="" horiz-adv-x="1000" d="M941.786 738.766c-13.358 33.056-32.314 62.409-56.366 87.32C839.28 873.892 779.251 900 716.116 900c-72.007 0-139.642-33.754-186.747-93.569l-29.46-37.41-29.462 37.41C423.342 866.246 355.707 900 283.7 900c-62.99 0-123.007-26.276-169.36-74.472-24.258-25.214-43.26-54.685-56.474-87.689-13.845-34.53-20.699-70.958-20.354-108.497.605-81.456 34.477-157.104 92.56-207.705 3.927-3.387 7.028-6.172 9.66-8.7 12.299-11.375 31.745-29.628 110.188-103.36C391.293 176.62 461.858 110.507 500.004 75.62c27.621 25.297 63.871 59.264 175.783 164.466L691.655 255c.13.121.13.121.258.243 106.463 100.066 141.718 133.099 176.364 164.969 59.508 50.987 93.963 127.481 94.222 209.94.086 37.815-6.887 74.304-20.713 108.614zm-442.78-664.06l-.002-.001.002.002z"/><glyph glyph-name="question-mine" unicode="" horiz-adv-x="1000" d="M500 1000h277.79V722.21c0-153.46-124.33-277.79-277.79-277.79-153.46 0-277.79 124.33-277.79 277.79C222.21 875.67 346.54 1000 500 1000zM250 388.84h500c107.366 0 194.42-87.054 194.42-194.42v-27.79C944.42 74.553 869.755 0 777.79 0H222.21C130.134 0 55.58 74.665 55.58 166.63v27.79C55.47 301.786 142.522 388.84 250 388.84z"/><glyph glyph-name="question-stock" unicode="" horiz-adv-x="1000" d="M660.17 613.904c-4.45 4.548-13.348 4.548-17.797 4.548-4.45 0-8.898-9.096-8.898-13.644 0 0-8.899-59.125-26.695-90.961 0-4.549 0-4.549-4.45-9.097 0 27.289-4.449 63.674-13.347 104.606-26.695 122.798-120.127 209.212-124.576 209.212-4.45 4.548-13.348 9.096-17.797 4.548-8.898-4.548-8.898-9.096-8.898-13.644 0 0 0-50.029-31.144-104.606-13.348-22.74-31.144-45.48-53.39-72.77-53.39-59.124-115.678-127.346-115.678-236.5C237.5 259.154 353.178 150 500 150s262.5 109.154 262.5 250.145c0 122.798-97.881 209.211-102.33 213.76z"/><glyph glyph-name="right" unicode="" horiz-adv-x="1000" d="M417.202 354.35l355.7 371.6a37.5 37.5 0 0054.2-51.9l-382.9-400a37.5 37.5 0 00-54.3.15l-217.1 228.5a37.5 37.5 0 1054.4 51.7l190-200.05z"/><glyph glyph-name="search" unicode="" horiz-adv-x="1000" d="M390.047 999.996c216.652-1.251 391.885-176.74 392.822-393.393a387.536 387.536 0 00-75-230.857l273.785-273.893a59.036 59.036 0 10-83.428-83.5L624.69 292.032c-67.266-49.8-148.485-76.397-231.821-76.036C176.197 217.247.948 392.752.01 609.425a388.286 388.286 0 00390.036 390.571zm.25-78.393a310.714 310.714 0 01-312-312.464c.761-173.329 140.958-313.717 314.286-314.714a310.714 310.714 0 01312 312.464c-.761 173.329-140.958 313.717-314.286 314.714z"/><glyph glyph-name="share" unicode="" horiz-adv-x="1000" d="M783.965 338.191c-52.315 0-98.501-24.611-129.296-62.268l-282.58 164.23c7.282 18.8 11.678 39.016 11.678 60.327 0 21.421-4.396 41.737-11.782 60.59l280.326 163.442c30.74-37.548 76.877-62.055 129.093-62.055 92.483 0 167.68 75.2 167.68 167.683 0 92.428-75.252 167.631-167.68 167.631-92.434 0-167.582-75.203-167.582-167.63 0-21.422 4.4-41.74 11.73-60.592L345.227 606.107c-30.74 37.547-76.876 62.059-129.092 62.059-92.479 0-167.682-75.203-167.682-167.632 0-92.434 75.253-167.63 167.682-167.63 52.265 0 98.457 24.561 129.246 62.212l282.58-164.28c-7.276-18.798-11.676-39.016-11.676-60.33 0-92.48 75.253-167.683 167.631-167.683 92.38 0 167.633 75.253 167.633 167.682 0 92.433-75.204 167.686-167.583 167.686zm-2.512 607.211c63.577 0 115.318-51.686 115.318-115.261 0-63.578-51.741-115.318-115.318-115.318-63.522 0-115.207 51.74-115.207 115.318 0 63.575 51.685 115.261 115.207 115.261zM216.134 385.22c-63.571 0-115.312 51.689-115.312 115.261 0 63.578 51.74 115.262 115.312 115.262 63.527 0 115.268-51.684 115.268-115.262 0-63.572-51.691-115.261-115.268-115.261zm567.83-330.08c-63.57 0-115.26 51.74-115.26 115.315 0 63.578 51.69 115.318 115.26 115.318 63.578 0 115.268-51.74 115.268-115.318 0-63.575-51.69-115.316-115.267-115.316zm0 0"/><glyph glyph-name="square-hollow" unicode="" horiz-adv-x="1000" d="M800 850H200c-27.5 0-50-22.5-50-50V200c0-27.5 22.5-50 50-50h600c27.5 0 50 22.5 50 50v600c0 27.5-22.5 50-50 50zm0-625c0-15-10-25-25-25H225c-15 0-25 10-25 25v550c0 15 10 25 25 25h550c15 0 25-10 25-25V225z"/><glyph glyph-name="star-blank" unicode="" horiz-adv-x="1000" d="M499.996 250l-181.8-95.578c-30.553-16.063-68.343-4.316-84.405 26.237a62.5 62.5 0 00-6.28 39.649l34.72 202.438-147.079 143.367c-24.718 24.094-25.223 63.664-1.13 88.381a62.5 62.5 0 0035.768 18.225l203.26 29.535 90.9 184.184c15.276 30.954 52.753 43.662 83.706 28.386a62.5 62.5 0 0028.386-28.386l90.9-184.184 203.26-29.535c34.159-4.964 57.826-36.679 52.863-70.838a62.5 62.5 0 00-18.225-35.768L737.76 422.746l34.72-202.438c5.836-34.021-17.013-66.331-51.034-72.166a62.5 62.5 0 00-39.65 6.28L499.997 250z"/><glyph glyph-name="star-full" unicode="" horiz-adv-x="1000" d="M499.996 250l-181.8-95.578c-30.553-16.063-68.343-4.316-84.405 26.237a62.5 62.5 0 00-6.28 39.649l34.72 202.438-147.079 143.367c-24.718 24.094-25.223 63.664-1.13 88.381a62.5 62.5 0 0035.768 18.225l203.26 29.535 90.9 184.184c15.276 30.954 52.753 43.662 83.706 28.386a62.5 62.5 0 0028.386-28.386l90.9-184.184 203.26-29.535c34.159-4.964 57.826-36.679 52.863-70.838a62.5 62.5 0 00-18.225-35.768L737.76 422.746l34.72-202.438c5.836-34.021-17.013-66.331-51.034-72.166a62.5 62.5 0 00-39.65 6.28L499.997 250z"/><glyph glyph-name="star-half" unicode="" horiz-adv-x="1000" d="M499.996 250l-181.8-95.578c-30.553-16.063-68.343-4.316-84.405 26.237a62.5 62.5 0 00-6.28 39.649l34.72 202.438-147.079 143.367c-24.718 24.094-25.223 63.664-1.13 88.381a62.5 62.5 0 0035.768 18.225l203.26 29.535 90.9 184.184c15.276 30.954 52.753 43.662 83.706 28.386a62.5 62.5 0 0028.386-28.386l90.9-184.184 203.26-29.535c34.159-4.964 57.826-36.679 52.863-70.838a62.5 62.5 0 00-18.225-35.768L737.76 422.746l34.72-202.438c5.836-34.021-17.013-66.331-51.034-72.166a62.5 62.5 0 00-39.65 6.28L499.997 250zm.012 671.292L499.996 250l-181.8-95.578c-30.553-16.063-68.343-4.316-84.405 26.237a62.5 62.5 0 00-6.28 39.649l34.72 202.438-147.079 143.367c-24.718 24.094-25.223 63.664-1.13 88.381a62.5 62.5 0 0035.768 18.225l203.26 29.535 90.9 184.184c10.882 22.05 33.029 34.841 56.058 34.854z"/><glyph glyph-name="star-hollow" unicode="" horiz-adv-x="1000.977" d="M750.411 38.188c-15.562 0-30.625 3.75-44.875 11.187L523.1 145.313a49.25 49.25 0 01-45.188 0l-182.5-95.938a97.375 97.375 0 00-118.75 23.438 94.188 94.188 0 00-20.937 78.062L190.6 354.063a48.5 48.5 0 01-14.063 43L28.911 541A95.813 95.813 0 004.6 639.75a95.625 95.625 0 0077.687 65.5l204.063 29.625a48.5 48.5 0 0136.5 26.625l91.25 184.875c16.375 33.063 49.437 53.625 86.375 53.625s70-20.563 86.375-53.625L678.1 761.5a48.625 48.625 0 0136.5-26.625l204.125-29.625a95.688 95.688 0 0077.687-65.5A95.938 95.938 0 00972.036 541L824.474 397.062a48.313 48.313 0 01-14.063-43l34.875-203.187c4.875-28.5-2.5-56.188-21-78.063a96.438 96.438 0 00-73.875-34.624zM500.474 198.625c15.625 0 31.125-3.875 44.75-11.062l182.5-96a49.125 49.125 0 0160.062 12 47.563 47.563 0 0110.438 39.25l-34.875 203.25a96.25 96.25 0 0027.687 85.187L938.6 575.188A47.625 47.625 0 01951.036 625a47.75 47.75 0 01-39.187 33.063l-204.125 29.625a96.25 96.25 0 00-72.438 52.625l-91.25 184.937c-8.375 17-24.687 27.063-43.562 27.063s-35.25-10.063-43.625-27.063l-91.25-184.875a96.375 96.375 0 00-72.5-52.688L89.099 658a47.5 47.5 0 01-39.188-33 47.5 47.5 0 0112.25-49.75l147.625-144c22.688-22.125 33.063-54 27.688-85.188l-34.875-203.25c-2.5-14.375 1.25-28.375 10.437-39.25a49.188 49.188 0 0160.063-12l182.5 96c13.875 7.188 29.25 11.063 44.875 11.063z"/><glyph glyph-name="star-solid" unicode="" horiz-adv-x="1000" d="M974.863 626.432c-4.182 12.795-17.522 35.159-60.136 41.363l-169.591 24.637c-41.682 6.068-92.705 43.113-111.386 80.932l-75.841 153.681c-19.068 38.637-44.455 44.41-57.91 44.41s-38.84-5.773-57.908-44.41l-75.864-153.681c-18.66-37.796-69.66-74.864-111.364-80.932l-169.59-24.637c-42.637-6.181-55.978-28.568-60.137-41.363-4.136-12.796-6.523-38.727 24.34-68.796l122.728-119.613c30.182-29.432 49.66-89.387 42.523-130.932l-28.955-168.91c-5.613-32.681 3.432-51.681 12.023-61.886 17.455-20.681 48.727-23.522 81.682-6.227l151.659 79.75c35.41 18.568 102.318 18.591 137.727 0l151.705-79.75c14.636-7.682 28.59-11.59 41.523-11.59 16.159 0 30.409 6.317 40.113 17.817 8.591 10.182 17.637 29.205 12.046 61.864l-28.955 168.932c-7.114 41.523 12.341 101.477 42.523 130.909l122.727 119.614c30.841 30.09 28.455 56.022 24.318 68.818z"/><glyph glyph-name="star" unicode="" horiz-adv-x="1000" d="M922.708 534.958c17.75 19.125 23.5 45.417 15.459 70.25s-28.209 42.667-53.792 47.709l-205.75 40.666A21.125 21.125 0 00664.292 704l-102.25 183.167c-12.75 22.75-35.959 36.375-62.042 36.375s-49.292-13.584-62-36.417L335.75 704a21.375 21.375 0 00-14.333-10.417l-205.792-40.666c-25.583-5.084-45.75-22.917-53.792-47.75s-2.291-51.125 15.459-70.25l142.583-153.875a21.042 21.042 0 005.458-16.792l-24.916-208.292a70.208 70.208 0 0128.791-65.916 70.417 70.417 0 0171.542-7l190.375 88.041a21.125 21.125 0 0017.667 0l190.375-88.041a70.167 70.167 0 0171.541 7 70 70 0 0128.792 65.916l-24.917 208.25a20.833 20.833 0 005.5 16.834l142.625 153.916zM743.5 415.083a70.917 70.917 0 01-18.458-56.75l24.916-208.291a20.75 20.75 0 00-8.541-19.542 20.75 20.75 0 00-21.167-2.083l-190.375 88.041a70.792 70.792 0 01-59.667 0l-190.375-88.041a20.667 20.667 0 00-21.166 2.083 20.75 20.75 0 00-8.542 19.542l24.917 208.333a71 71 0 01-18.417 56.667L114.083 568.875a20.542 20.542 0 00-4.583 20.833 20.583 20.583 0 0015.917 14.125l205.75 40.667a71.025 71.025 0 0148.166 35.125l102.25 183.167c5.459 9.666 14.709 10.75 18.417 10.75s12.958-1.042 18.375-10.792l102.25-183.167c10.167-18.25 27.75-31 48.25-35.041l205.75-40.709a20.625 20.625 0 0015.917-14.083 20.75 20.75 0 00-4.584-20.833L743.5 415.083z"/><glyph glyph-name="sure-circle-solid" unicode="" horiz-adv-x="1000" d="M500 31.25C241.11 31.25 31.25 241.11 31.25 500S241.11 968.75 500 968.75 968.75 758.89 968.75 500 758.89 31.25 500 31.25zm274.25 618c-11.844 11.844-31.063 11.844-42.906 0L437.047 354.953 269.562 522.438c-11.593 11.609-30.406 11.609-42 0-11.609-11.594-11.609-30.407 0-42l182.266-182.266c1.422-2.844 2.953-5.656 5.328-8.031 11.828-11.844 31.047-11.844 42.89 0L774.25 606.344c11.844 11.843 11.844 31.062 0 42.906z"/><glyph glyph-name="sure-square-hollow" unicode="" horiz-adv-x="1000" d="M650 647.5c-12.5 7.5-27.5 2.5-35-10L455 360l-90 82.5c-10 10-25 10-35 0s-10-25 0-35l115-105c10-10 25-10 35 0 2.5 2.5 180 310 180 310 7.5 12.5 2.5 27.5-10 35zM800 875H200c-55 0-100-45-100-100V175c0-55 45-100 100-100h600c55 0 100 45 100 100v600c0 55-45 100-100 100zm50-700c0-27.5-22.5-50-50-50H200c-27.5 0-50 22.5-50 50v600c0 27.5 22.5 50 50 50h600c27.5 0 50-22.5 50-50V175z"/><glyph glyph-name="thumbs" unicode="" horiz-adv-x="1000" d="M500.255 119.388c-13.265 0-25.51 4.081-36.224 12.755-8.674 7.143-220.409 170.918-305.102 304.081-28.062 43.878-66.837 103.572-66.837 188.266 0 141.326 105.612 256.122 234.694 256.122 65.816 0 128.571-30.102 173.47-82.653 44.387 53.061 106.632 82.653 172.958 82.653 129.592 0 234.694-114.796 234.694-256.122 0-83.163-36.224-140.306-65.816-186.735l-1.02-1.53c-84.694-133.164-296.43-297.45-305.103-304.082-10.204-8.163-22.449-12.755-35.714-12.755z"/><glyph glyph-name="tips-error" unicode="" horiz-adv-x="1000" d="M500 1000C223.833 1000 0 776.167 0 500S223.833 0 500 0s500 223.833 500 500-223.833 500-500 500zm0-777.792a55.583 55.583 0 10-.042 111.125A55.583 55.583 0 00500 222.208zm52.917 222.459h.125a59.083 59.083 0 00-52.542-54.584c2-.25 3.792-1.125 5.833-1.125h-11.541c2 0 3.75.959 5.708 1.084a57.708 57.708 0 00-51.917 54.583l-12.75 277.5a53.042 53.042 0 0053.334 55.708h25.666a51.75 51.75 0 0052.917-55.666l-14.792-277.5z"/><glyph glyph-name="video-camera" unicode="" horiz-adv-x="1000" d="M881.957 667.762l-121.54-62.291v141.324c0 3.073-1.402 6.199-4.184 8.766-3.28 3.029-8.058 4.856-13.178 4.856H111.111c-10.122 0-17.361-6.682-17.361-13.622V253.207c0-3.075 1.402-6.2 4.184-8.768 3.281-3.029 8.059-4.856 13.178-4.856h631.943c5.12 0 9.897 1.827 13.178 4.856 2.782 2.567 4.184 5.693 4.184 8.766V394.53l45.503-23.32 75.09-38.61c5.94-2.435 12.98-1.92 18.294 1.27 4.543 2.726 6.946 6.814 6.946 10.831v310.602c0 4.016-2.403 8.105-6.946 10.831-5.035 3.021-11.617 3.643-17.347 1.629zm-305.723-183.81c6.99 3.382 11.266 9.474 11.266 16.048 0 6.574-4.277 12.667-11.266 16.049l-186.936 97.956c-7.17 3.465-16.096 3.553-23.368.229-7.272-3.324-11.763-9.545-11.763-16.287V402.053c0-6.741 4.491-12.963 11.763-16.287s16.199-3.236 23.368.23l186.936 97.956z"/></font>
</defs>
</svg>
